<svg width="200" height="200" viewBox="0 0 200 200" fill="none" xmlns="http://www.w3.org/2000/svg">
    <g clip-path="url(#clip0_1377_843)">
        <path fill-rule="evenodd" clip-rule="evenodd" d="M42.582 3.125L45.707 0H155.082L158.207 3.125V178.125L155.082 181.25L139.457 162.5L133.207 168.75H130.082L117.582 156.25L45.707 200L42.582 196.875V3.125Z" fill="#952B2B"/>
        <path d="M98.8324 28.125H101.957L105.082 75L133.207 78.125V81.25L105.082 84.375L101.957 131.25H98.8324L95.707 84.375L67.582 81.25V78.125L95.707 75L98.8324 28.125Z" fill="white"/>
        <path d="M74.1445 96.875V99.6875L80.707 102.813L83.207 109.063H86.332V96.875H74.1445Z" fill="white"/>
        <path d="M126.645 96.875V99.6875L120.082 102.813L117.582 109.063H114.457V96.875H126.645Z" fill="white"/>
        <path d="M126.645 65.9375V63.125L120.082 60L117.582 53.75H114.457V65.9375H126.645Z" fill="white"/>
        <path d="M74.1445 65.9375V63.125L80.707 60L83.207 53.75H86.332V65.9375H74.1445Z" fill="white"/>
    </g>
    <defs>
        <clipPath id="clip0_1377_843">
            <rect width="200" height="200" fill="white"/>
        </clipPath>
    </defs>
</svg>
